<svg width="24" height="24" viewBox="0 0 24 24" fill="none"
     xmlns="http://www.w3.org/2000/svg">
  <path d="M12 4C9.8 4 8 5.8 8 8V10.5C8 11.2 7.7 12 7.3 12.6L6.4 14
           C5.7 15.1 6.5 16.5 7.8 16.5H16.2C17.5 16.5 18.3 15.1 17.6 14L16.7 12.6
           C16.3 12 16 11.2 16 10.5V8C16 5.8 14.2 4 12 4Z"
        stroke="#D4AF37" stroke-width="1.6" stroke-linecap="round"
        stroke-linejoin="round"/>
  <path d="M10 18C10.5 19 11.2 19.5 12 19.5C12.8 19.5 13.5 19 14 18"
        stroke="#D4AF37" stroke-width="1.6" stroke-linecap="round"/>
</svg>
